<svg width="16" height="14" viewBox="0 0 16 14" fill="none" xmlns="http://www.w3.org/2000/svg">
<path d="M1.80287 6.41507H14.3836C14.5466 6.41507 14.703 6.47985 14.8184 6.59517C14.9337 6.71049 14.9985 6.86689 14.9985 7.02997C14.9985 7.19306 14.9337 7.34946 14.8184 7.46478C14.703 7.5801 14.5466 7.64488 14.3836 7.64488H1.80287C1.63979 7.64488 1.48338 7.5801 1.36807 7.46478C1.25275 7.34946 1.18796 7.19306 1.18796 7.02997C1.18796 6.86689 1.25275 6.71049 1.36807 6.59517C1.48338 6.47985 1.63979 6.41507 1.80287 6.41507Z" fill="white" stroke="white" stroke-width="0.0282574"/>
<path d="M2.0531 7.02028L2.04311 7.03028L2.0531 7.04027L7.27032 12.2562C7.38578 12.3717 7.45065 12.5283 7.45065 12.6916C7.45065 12.8549 7.38578 13.0115 7.27031 13.127C7.15485 13.2424 6.99824 13.3073 6.83495 13.3073C6.67165 13.3073 6.51505 13.2424 6.39958 13.127L0.738273 7.46564L0.73826 7.46563C0.680996 7.40851 0.635564 7.34065 0.604564 7.26595C0.573565 7.19124 0.557609 7.11116 0.557609 7.03028C0.557609 6.94939 0.573565 6.86931 0.604564 6.7946C0.635564 6.7199 0.680996 6.65204 0.73826 6.59492L0.738273 6.59491L6.39958 0.933599C6.51505 0.818133 6.67165 0.753264 6.83495 0.753264C6.99824 0.753264 7.15485 0.818133 7.27031 0.933599C7.38578 1.04906 7.45065 1.20567 7.45065 1.36896C7.45065 1.53226 7.38578 1.68886 7.27031 1.80433L2.0531 7.02028Z" fill="white" stroke="white" stroke-width="0.0282574"/>
</svg>
