<svg width="16" height="15" viewBox="0 0 16 15" fill="none" xmlns="http://www.w3.org/2000/svg">
<g clip-path="url(#clip0_1_129)">
<path d="M10.3262 6.20662H6.08131L8.20373 9.84454L10.3262 6.20662ZM12.1614 5.45369L8.46315 11.7932C8.43656 11.8386 8.39853 11.8763 8.35286 11.9025C8.30719 11.9287 8.25547 11.9425 8.20283 11.9425C8.15018 11.9425 8.09846 11.9287 8.05279 11.9025C8.00712 11.8763 7.9691 11.8386 7.9425 11.7932L4.24424 5.45369C4.21741 5.40772 4.20323 5.35546 4.20313 5.30223C4.20302 5.249 4.21701 5.19669 4.24366 5.15061C4.27032 5.10453 4.30869 5.06633 4.35488 5.03988C4.40108 5.01343 4.45345 4.99967 4.50668 5.00001L11.9014 5.00001C11.9545 4.99999 12.0066 5.01398 12.0525 5.04056C12.0985 5.06714 12.1366 5.10537 12.163 5.1514C12.1895 5.19742 12.2033 5.24961 12.2031 5.30268C12.2029 5.35576 12.1888 5.40785 12.162 5.45369H12.1614Z" fill="#BDBDBD"/>
</g>
<defs>
<clipPath id="clip0_1_129">
<rect width="15" height="15" fill="white" transform="matrix(0 1 -1 0 15.5 0)"/>
</clipPath>
</defs>
</svg>
