<svg width="15" height="13" viewBox="0 0 15 13" fill="none" xmlns="http://www.w3.org/2000/svg">
<path d="M5.30523 12.2104L5.48345 12.4986L5.79705 12.3702L7.5 11.6727L9.20295 12.3702L9.51655 12.4986L9.69477 12.2104L10.6414 10.6794L12.438 10.296L12.7877 10.2213L12.7526 9.86555L12.5792 8.10454L13.7957 6.7694L14.0411 6.5L13.7957 6.2306L12.5792 4.89546L12.7526 3.13445L12.7877 2.77866L12.438 2.70405L10.6414 2.32063L9.69477 0.789646L9.51655 0.501405L9.20295 0.62984L7.5 1.32728L5.79705 0.62984L5.48345 0.501405L5.30523 0.789646L4.35865 2.32063L2.56197 2.70405L2.21233 2.77866L2.24738 3.13445L2.42085 4.89546L1.20433 6.2306L0.958859 6.5L1.20433 6.7694L2.42085 8.10454L2.24738 9.86555L2.21233 10.2213L2.56197 10.296L4.35865 10.6794L5.30523 12.2104ZM6.92727 7.80495L5.5684 6.5L5.75779 6.31813L6.65362 7.15841L6.93051 7.41813L7.20433 7.15518L9.24055 5.19976L9.43683 5.39498L6.92727 7.80495Z" stroke="#BDBDBD" stroke-width="0.8"/>
</svg>
