<svg width="11" height="10" viewBox="0 0 11 10" fill="none" xmlns="http://www.w3.org/2000/svg">
<path d="M2.125 7.89505C1.69402 7.89505 1.2807 7.71483 0.975951 7.39403C0.671205 7.07323 0.5 6.63813 0.5 6.18445V1.71059C0.5 1.25692 0.671205 0.82182 0.975951 0.501021C1.2807 0.180223 1.69402 0 2.125 0H8.875C9.0884 0 9.29971 0.0442458 9.49686 0.130211C9.69401 0.216177 9.87315 0.342178 10.024 0.501021C10.1749 0.659865 10.2946 0.848439 10.3763 1.05598C10.458 1.26352 10.5 1.48596 10.5 1.71059V6.18445C10.5 6.40909 10.458 6.63153 10.3763 6.83907C10.2946 7.04661 10.1749 7.23518 10.024 7.39403C9.87315 7.55287 9.69401 7.67887 9.49686 7.76484C9.29971 7.8508 9.0884 7.89505 8.875 7.89505H6.006L3.5 9.86881C3.40714 9.94197 3.29678 9.98648 3.18126 9.99738C3.06573 10.0083 2.94961 9.98511 2.84588 9.93048C2.74215 9.87586 2.65491 9.79193 2.59391 9.68808C2.53291 9.58423 2.50057 9.46457 2.5005 9.34247V7.89505H2.1255H2.125ZM5.757 7.10554H8.875C9.10706 7.10554 9.32962 7.0085 9.49372 6.83576C9.65781 6.66303 9.75 6.42874 9.75 6.18445V1.71059C9.75 1.46631 9.65781 1.23202 9.49372 1.05929C9.32962 0.886548 9.10706 0.789505 8.875 0.789505H2.125C1.89294 0.789505 1.67038 0.886548 1.50628 1.05929C1.34219 1.23202 1.25 1.46631 1.25 1.71059V6.18445C1.25 6.6929 1.642 7.10554 2.125 7.10554H3.2495V9.07931L5.757 7.10554Z" fill="#BDBDBD"/>
</svg>
