<svg width="15" height="15" viewBox="0 0 15 15" fill="none" xmlns="http://www.w3.org/2000/svg">
<g clip-path="url(#clip0_1_146)">
<g filter="url(#filter0_d_1_146)">
<path d="M7.3125 2.25C7.62315 2.25 7.875 2.50184 7.875 2.8125C7.875 3.12316 7.62315 3.375 7.3125 3.375C7.00185 3.375 6.75 3.12316 6.75 2.8125C6.75 2.50184 7.00185 2.25 7.3125 2.25ZM7.3125 6.74998C7.62315 6.74998 7.875 7.00183 7.875 7.31248C7.875 7.62313 7.62315 7.87498 7.3125 7.87498C7.00185 7.87498 6.75 7.62313 6.75 7.31248C6.75 7.00183 7.00185 6.74998 7.3125 6.74998ZM7.3125 11.25C7.62315 11.25 7.875 11.5018 7.875 11.8125C7.875 12.1231 7.62315 12.375 7.3125 12.375C7.00185 12.375 6.75 12.1231 6.75 11.8125C6.75 11.5018 7.00185 11.25 7.3125 11.25Z" fill="white"/>
<path d="M7.3125 2.25C7.62315 2.25 7.875 2.50184 7.875 2.8125C7.875 3.12316 7.62315 3.375 7.3125 3.375C7.00185 3.375 6.75 3.12316 6.75 2.8125C6.75 2.50184 7.00185 2.25 7.3125 2.25ZM7.3125 6.74998C7.62315 6.74998 7.875 7.00183 7.875 7.31248C7.875 7.62313 7.62315 7.87498 7.3125 7.87498C7.00185 7.87498 6.75 7.62313 6.75 7.31248C6.75 7.00183 7.00185 6.74998 7.3125 6.74998ZM7.3125 11.25C7.62315 11.25 7.875 11.5018 7.875 11.8125C7.875 12.1231 7.62315 12.375 7.3125 12.375C7.00185 12.375 6.75 12.1231 6.75 11.8125C6.75 11.5018 7.00185 11.25 7.3125 11.25Z" stroke="white" stroke-width="0.5"/>
</g>
</g>
<defs>
<filter id="filter0_d_1_146" x="2.5" y="-1" width="9.625" height="18.625" filterUnits="userSpaceOnUse" color-interpolation-filters="sRGB">
<feFlood flood-opacity="0" result="BackgroundImageFix"/>
<feColorMatrix in="SourceAlpha" type="matrix" values="0 0 0 0 0 0 0 0 0 0 0 0 0 0 0 0 0 0 127 0" result="hardAlpha"/>
<feOffset dy="1"/>
<feGaussianBlur stdDeviation="2"/>
<feComposite in2="hardAlpha" operator="out"/>
<feColorMatrix type="matrix" values="0 0 0 0 0 0 0 0 0 0 0 0 0 0 0 0 0 0 0.25 0"/>
<feBlend mode="normal" in2="BackgroundImageFix" result="effect1_dropShadow_1_146"/>
<feBlend mode="normal" in="SourceGraphic" in2="effect1_dropShadow_1_146" result="shape"/>
</filter>
<clipPath id="clip0_1_146">
<rect width="15" height="15" fill="white"/>
</clipPath>
</defs>
</svg>
