<svg width="17" height="16" viewBox="0 0 17 16" fill="none" xmlns="http://www.w3.org/2000/svg">
<path d="M15.2556 16L9.65556 10.4C9.21111 10.7556 8.7 11.037 8.12222 11.2444C7.54444 11.4519 6.92963 11.5556 6.27778 11.5556C4.66296 11.5556 3.29644 10.9961 2.17822 9.87733C1.06 8.75852 0.500593 7.392 0.5 5.77778C0.5 4.16296 1.05941 2.79644 2.17822 1.67822C3.29704 0.56 4.66356 0.000592593 6.27778 0C7.89259 0 9.25911 0.559407 10.3773 1.67822C11.4956 2.79704 12.055 4.16356 12.0556 5.77778C12.0556 6.42963 11.9519 7.04444 11.7444 7.62222C11.537 8.2 11.2556 8.71111 10.9 9.15556L16.5 14.7556L15.2556 16ZM6.27778 9.77778C7.38889 9.77778 8.33348 9.38874 9.11156 8.61067C9.88963 7.83259 10.2784 6.8883 10.2778 5.77778C10.2778 4.66667 9.88874 3.72207 9.11067 2.944C8.33259 2.16593 7.3883 1.77719 6.27778 1.77778C5.16667 1.77778 4.22207 2.16682 3.444 2.94489C2.66593 3.72296 2.27719 4.66726 2.27778 5.77778C2.27778 6.88889 2.66682 7.83348 3.44489 8.61156C4.22296 9.38963 5.16726 9.77837 6.27778 9.77778Z" fill="#8F8E91"/>
</svg>
