<svg width="16" height="15" viewBox="0 0 16 15" fill="none" xmlns="http://www.w3.org/2000/svg">
<g clip-path="url(#clip0_1_126)">
<path fill-rule="evenodd" clip-rule="evenodd" d="M8.46315 4.15014L12.1614 10.4897H12.162C12.1888 10.5355 12.2029 10.5876 12.2031 10.6407C12.2033 10.6938 12.1895 10.7459 12.163 10.792C12.1366 10.838 12.0985 10.8762 12.0525 10.9028C12.0066 10.9294 11.9545 10.9434 11.9014 10.9434H4.50668C4.45345 10.9437 4.40108 10.9299 4.35488 10.9035C4.30869 10.877 4.27032 10.8388 4.24366 10.7927C4.21701 10.7467 4.20302 10.6944 4.20312 10.6411C4.20323 10.5879 4.21741 10.5356 4.24424 10.4897L7.9425 4.15014C7.96909 4.10471 8.00712 4.06703 8.05278 4.04085C8.09845 4.01466 8.15018 4.00089 8.20282 4.00089C8.25547 4.00089 8.30719 4.01466 8.35286 4.04085C8.39853 4.06703 8.43655 4.10471 8.46315 4.15014Z" fill="#FE3C72"/>
</g>
<defs>
<clipPath id="clip0_1_126">
<rect width="15" height="15" fill="white" transform="matrix(0 -1 -1 0 15.5 15)"/>
</clipPath>
</defs>
</svg>
